# xmcd
# Track frame offsets:
# 150
# 16620
# 29795
# 41285
# 53615
# 67490
# 79208
# 93775
# 106923
# 118690
# 133130
# 147290
# 160900
# 175505
# 188083
# 200105
# 212675
# 226625
# 239323
# 252825
# 266723
# 280623
# 294443
# 307363
#
# Disc length: 4293 seconds
# Revision: 2
# Processed by: cddbd v1.4PL0 Copyright (c) Steve Scherf et al.
# Submitted via: VisiTrax 2.9.6.190 - For more info visit www.synapsa.com
#
DISCID=5810c318
DTITLE=Cannon's Jug Stompers - Cannon's Jug Stompers:  The Complete Works 192
DTITLE=7 - 1930
DYEAR=1989
DGENRE=Blues
TTITLE0=Minglewood Blues
TTITLE1=Walk Right In
TTITLE2=Going To Germany
TTITLE3=Bring It With You When You Come
TTITLE4=Bugle Call Rag
TTITLE5=Prison Wall Blues
TTITLE6=Feather Bed
TTITLE7=Noah's Blues
TTITLE8=Wolf River Blues
TTITLE9=Madison Street Rag
TTITLE10=Viola Lee Blues
TTITLE11=Cairo Rag
TTITLE12=Last Chance Blues
TTITLE13=Mule Get Up In The Alley
TTITLE14=Pretty Mama Blues
TTITLE15=Money Never Runs Out
TTITLE16=Pig Ankle Strut
TTITLE17=Jonestown Blues
TTITLE18=The Rooster Crowing Blues
TTITLE19=Hollywood Rag
TTITLE20=Heart Breakin' Blues
TTITLE21=Ripley Blues
TTITLE22=Tired Chicken Blues
TTITLE23=Big Railroad Blues
EXTD=Yazoo, 1082/3
EXTT0=
EXTT1=
EXTT2=
EXTT3=
EXTT4=
EXTT5=
EXTT6=
EXTT7=
EXTT8=
EXTT9=
EXTT10=
EXTT11=
EXTT12=
EXTT13=
EXTT14=
EXTT15=
EXTT16=
EXTT17=
EXTT18=
EXTT19=
EXTT20=
EXTT21=
EXTT22=
EXTT23=
PLAYORDER=
